<svg width="1200" height="880" viewBox="0 0 1200 880" fill="none" xmlns="http://www.w3.org/2000/svg">
  <rect width="1200" height="880" rx="48" fill="#F4EFE6"/>
  <rect x="56" y="56" width="1088" height="768" rx="40" fill="url(#panelBg)"/>
  <path d="M56 574C190 504 328 482 470 510C615 538 701 625 862 624C972 623 1069 578 1144 514V784C1144 806.091 1126.09 824 1104 824H96C73.9086 824 56 806.091 56 784V574Z" fill="#F7F1E8"/>
  <path d="M56 398C151 356 252 349 360 377C494 412 575 521 724 527C843 532 962 467 1144 316V96C1144 73.9086 1126.09 56 1104 56H96C73.9086 56 56 73.9086 56 96V398Z" fill="url(#mountain)"/>
  <path d="M130 392C223 314 310 276 391 278C479 280 537 341 618 392C708 449 816 466 940 432C1001 415 1061 386 1120 344V132H80V318C98 345 114 370 130 392Z" fill="rgba(255,255,255,0.16)"/>
  <rect x="132" y="150" width="258" height="64" rx="22" fill="rgba(255,255,255,0.16)" stroke="rgba(255,255,255,0.35)"/>
  <circle cx="191" cy="182" r="24" fill="#EF7F52"/>
  <path d="M182 183H200" stroke="white" stroke-width="4" stroke-linecap="round"/>
  <path d="M191 174V192" stroke="white" stroke-width="4" stroke-linecap="round"/>
  <text x="228" y="189" fill="white" font-size="28" font-family="Arial, PingFang SC, sans-serif">CathayVia Travel Desk</text>
  <text x="132" y="288" fill="white" font-size="92" font-weight="700" font-family="Arial, PingFang SC, sans-serif">Design your</text>
  <text x="132" y="380" fill="white" font-size="92" font-weight="700" font-family="Arial, PingFang SC, sans-serif">China city route</text>
  <text x="132" y="454" fill="#D8E5EB" font-size="34" font-family="Arial, PingFang SC, sans-serif">More local insight, clearer routes, and direct advisor support</text>
  <rect x="132" y="544" width="448" height="168" rx="28" fill="white"/>
  <rect x="168" y="584" width="172" height="48" rx="16" fill="#F4EFE6"/>
  <rect x="360" y="584" width="172" height="48" rx="16" fill="#F4EFE6"/>
  <rect x="168" y="652" width="364" height="24" rx="12" fill="#E4DDD1"/>
  <rect x="736" y="538" width="276" height="208" rx="32" fill="#15202B"/>
  <rect x="778" y="580" width="192" height="96" rx="24" fill="#EF7F52"/>
  <circle cx="874" cy="628" r="34" fill="#FFE5D5"/>
  <path d="M214 676C270 642 344 624 436 622C516 620 582 631 632 656" stroke="#EF7F52" stroke-width="10" stroke-linecap="round"/>
  <defs>
    <linearGradient id="panelBg" x1="80" y1="56" x2="1114" y2="824" gradientUnits="userSpaceOnUse">
      <stop stop-color="#122130"/>
      <stop offset="0.5" stop-color="#213448"/>
      <stop offset="1" stop-color="#3B5366"/>
    </linearGradient>
    <linearGradient id="mountain" x1="91" y1="133" x2="1025" y2="476" gradientUnits="userSpaceOnUse">
      <stop stop-color="#274E60"/>
      <stop offset="0.52" stop-color="#4C4A66"/>
      <stop offset="1" stop-color="#E68457"/>
    </linearGradient>
  </defs>
</svg>
